<svg xmlns="http://www.w3.org/2000/svg" width="174.756" height="22.842" viewBox="0 0 174.756 22.842">
  <g id="Group_1" data-name="Group 1" transform="translate(2607.92 -1157.557)">
    <path id="Path_1" data-name="Path 1" d="M-2604.512,1179.955a1.137,1.137,0,0,1-1.282,1.282h-.844a1.137,1.137,0,0,1-1.282-1.282v-19.882a1.137,1.137,0,0,1,1.282-1.282h6.565a1.137,1.137,0,0,1,1.282,1.282v.594a1.137,1.137,0,0,1-1.282,1.282h-4.439v6.158h3.22a1.137,1.137,0,0,1,1.282,1.282v.5a1.137,1.137,0,0,1-1.282,1.282h-3.22Z" transform="translate(0 -1.149)" fill="#0f393a"/>
    <path id="Path_2" data-name="Path 2" d="M-2474.279,1261.35c-3.408,0-4.939-2.22-4.939-8.347,0-5.783,1.344-8.409,4.939-8.409,3.564,0,4.908,2.626,4.908,8.409,0,6.127-1.532,8.347-4.908,8.347m0-2.595c1.281,0,1.688-1.469,1.688-5.752,0-4.22-.406-5.815-1.688-5.815-1.313,0-1.719,1.594-1.719,5.815,0,4.283.406,5.752,1.719,5.752" transform="translate(-119.793 -81.012)" fill="#0f393a"/>
    <path id="Path_3" data-name="Path 3" d="M-2318.483,1261.35c-3.407,0-4.939-2.22-4.939-8.347,0-5.783,1.344-8.409,4.939-8.409,3.564,0,4.908,2.626,4.908,8.409,0,6.127-1.532,8.347-4.908,8.347m0-2.595c1.281,0,1.688-1.469,1.688-5.752,0-4.22-.406-5.815-1.688-5.815-1.313,0-1.719,1.594-1.719,5.815,0,4.283.406,5.752,1.719,5.752" transform="translate(-264.804 -81.012)" fill="#0f393a"/>
    <path id="Path_4" data-name="Path 4" d="M-2149,1180.016c0,1-.532,1.219-1.188,1.219h-.063a1.308,1.308,0,0,1-1.469-1.188l-.156-.656a3.637,3.637,0,0,1-3.032,2.095c-2.407,0-3.688-2.032-3.688-8.316,0-6.127,1.313-8.315,3.845-8.315a3.141,3.141,0,0,1,2.688,1.532v-6.315a1.137,1.137,0,0,1,1.282-1.282h.5a1.137,1.137,0,0,1,1.282,1.282Zm-3.064-2.845v-8.409a1.933,1.933,0,0,0-1.469-.969c-1.282,0-1.844,1.5-1.844,5.377,0,3.658.469,5.283,1.688,5.283a2.285,2.285,0,0,0,1.625-1.282" transform="translate(-418.223 -1.148)" fill="#0f393a"/>
    <path id="Path_5" data-name="Path 5" d="M-1949.388,1178.722a1.137,1.137,0,0,1-1.282,1.282h-6.69a1.137,1.137,0,0,1-1.282-1.282V1158.84a1.137,1.137,0,0,1,1.282-1.282h.844a1.137,1.137,0,0,1,1.282,1.282v18.006h4.564a1.137,1.137,0,0,1,1.282,1.282Z" transform="translate(-604.334 -0.001)" fill="#0f393a"/>
    <path id="Path_6" data-name="Path 6" d="M-1807.048,1258.585c.062.688-.188,1.282-1.188,1.282h-.281a1.211,1.211,0,0,1-1.376-1.282l-.031-.313a4.252,4.252,0,0,1-3.47,1.845c-1.907,0-3-1.5-3-4.158a5.565,5.565,0,0,1,1.532-4.189,14.871,14.871,0,0,1,4.689-2.626c.125-1.844.125-3.189-1.282-3.189a1.517,1.517,0,0,0-1.469,1.188c-.25.719-.375,1.25-1.469,1.25h-.281c-.969,0-1.157-.688-1.032-1.344a4.1,4.1,0,0,1,4.439-3.689c3.064,0,4.1,1.719,4.1,4.846v8.565Zm-3.22-2.532v-4.564a5.528,5.528,0,0,0-2.345,1.563,3.73,3.73,0,0,0-.656,2.438c0,1.157.344,1.938,1.157,1.938a2.213,2.213,0,0,0,1.844-1.375" transform="translate(-736.733 -79.864)" fill="#0f393a"/>
    <path id="Path_7" data-name="Path 7" d="M-1646.14,1178.815a1.281,1.281,0,0,1-1.438,1.188h-.063c-1,0-1.219-.531-1.219-1.219v-19.945a1.137,1.137,0,0,1,1.282-1.282h.5a1.137,1.137,0,0,1,1.282,1.282v6.315a3.14,3.14,0,0,1,2.688-1.532c2.532,0,3.845,2.188,3.845,8.315,0,6.284-1.281,8.316-3.658,8.316a3.625,3.625,0,0,1-3.063-2.095Zm.344-11.285v8.409a2.284,2.284,0,0,0,1.625,1.282c1.219,0,1.688-1.563,1.688-5.283,0-3.876-.563-5.377-1.844-5.377a1.933,1.933,0,0,0-1.469.969" transform="translate(-892.671)" fill="#0f393a"/>
    <path id="Path_8" data-name="Path 8" d="M-1479.453,1254.584a.966.966,0,0,1,1.063,1.282c-.5,2.782-1.938,4.252-4.533,4.252-3.314,0-4.72-2.126-4.72-8.5,0-5.314,1.313-8.253,4.814-8.253,3.72,0,4.6,3.251,4.6,7.065v.688a1.123,1.123,0,0,1-1.282,1.219h-5.158c.031,3.814.469,5.22,1.813,5.22.969,0,1.469-.688,1.657-1.688a1.42,1.42,0,0,1,1.594-1.282Zm-3.407-8.722c-1.125,0-1.657,1.188-1.782,4.189h3.439c0-2.657-.344-4.189-1.657-4.189" transform="translate(-1042.728 -79.864)" fill="#0f393a"/>
    <path id="Path_9" data-name="Path 9" d="M-1319.3,1178.722a1.137,1.137,0,0,1-1.282,1.282h-.5a1.137,1.137,0,0,1-1.282-1.282V1158.84a1.137,1.137,0,0,1,1.282-1.282h.5a1.137,1.137,0,0,1,1.282,1.282Z" transform="translate(-1196.569 -0.001)" fill="#0f393a"/>
    <path id="Path_10" data-name="Path 10" d="M-1197.817,1180.838a1.137,1.137,0,0,1-1.282,1.282h-.375a1.137,1.137,0,0,1-1.282-1.282v-14.912h-.063l-2.72,15.162a1.133,1.133,0,0,1-1.219,1.032h-.063a1.143,1.143,0,0,1-1.25-1.032l-2.782-15.162h-.062v14.912a1.137,1.137,0,0,1-1.282,1.282h-.375a1.137,1.137,0,0,1-1.282-1.282v-19.882a1.137,1.137,0,0,1,1.282-1.282h1.938a1.314,1.314,0,0,1,1.5,1.25l2.282,12.723h.063l2.376-12.723a1.34,1.34,0,0,1,1.532-1.25h1.782a1.137,1.137,0,0,1,1.282,1.282Z" transform="translate(-1299.427 -1.97)" fill="#0f393a"/>
    <path id="Path_11" data-name="Path 11" d="M-980.773,1260.7c.062.688-.188,1.282-1.188,1.282h-.281a1.211,1.211,0,0,1-1.375-1.282l-.031-.313a4.253,4.253,0,0,1-3.47,1.844c-1.907,0-3-1.5-3-4.158a5.565,5.565,0,0,1,1.532-4.189,14.871,14.871,0,0,1,4.689-2.626c.125-1.844.125-3.189-1.282-3.189a1.518,1.518,0,0,0-1.469,1.188c-.25.719-.375,1.25-1.469,1.25h-.281c-.969,0-1.157-.688-1.032-1.344a4.1,4.1,0,0,1,4.439-3.689c3.064,0,4.1,1.719,4.1,4.845v8.566Zm-3.22-2.532V1253.6a5.529,5.529,0,0,0-2.345,1.563,3.731,3.731,0,0,0-.656,2.438c0,1.157.344,1.938,1.157,1.938a2.213,2.213,0,0,0,1.844-1.375" transform="translate(-1505.811 -81.834)" fill="#0f393a"/>
    <path id="Path_12" data-name="Path 12" d="M-813.051,1180.932c.281.875-.281,1.188-.907,1.188h-.656a1.517,1.517,0,0,1-1.657-1.219l-2.032-6.6-1.282,2.251v4.283a1.137,1.137,0,0,1-1.282,1.282h-.438a1.137,1.137,0,0,1-1.282-1.282v-19.882a1.137,1.137,0,0,1,1.282-1.282h.438a1.137,1.137,0,0,1,1.282,1.282v11h.063l2.47-4.908a1.841,1.841,0,0,1,1.876-1.188h.688c.563,0,1.063.344.656,1.094l-2.313,4.1Z" transform="translate(-1661.747 -1.97)" fill="#0f393a"/>
    <path id="Path_13" data-name="Path 13" d="M-665.823,1256.7a.966.966,0,0,1,1.063,1.282c-.5,2.782-1.938,4.251-4.533,4.251-3.314,0-4.72-2.126-4.72-8.5,0-5.314,1.313-8.253,4.814-8.253,3.72,0,4.6,3.251,4.6,7.065v.688a1.123,1.123,0,0,1-1.282,1.219h-5.158c.031,3.814.469,5.221,1.813,5.221.969,0,1.469-.688,1.657-1.688a1.42,1.42,0,0,1,1.594-1.282Zm-3.407-8.722c-1.125,0-1.657,1.188-1.782,4.189h3.439c0-2.657-.344-4.189-1.657-4.189" transform="translate(-1800.036 -81.834)" fill="#0f393a"/>
    <path id="Path_14" data-name="Path 14" d="M-505.666,1260.7a1.137,1.137,0,0,1-1.282,1.282h-.5a1.137,1.137,0,0,1-1.282-1.282v-13.693a1.137,1.137,0,0,1,1.282-1.282h.5a1.137,1.137,0,0,1,1.282,1.282v1.125c.844-1.657,1.626-2.657,2.939-2.657.469,0,.688.125.688.656v1.5c0,.688-.219.875-.75,1a3.782,3.782,0,0,0-2.876,2.376Z" transform="translate(-1953.877 -81.834)" fill="#0f393a"/>
    <path id="Path_15" data-name="Path 15" d="M-403.252,1454.619a.6.6,0,0,1-.682.682h-.449a.6.6,0,0,1-.682-.682v-.765a.6.6,0,0,1,.682-.682h.449a.6.6,0,0,1,.682.682Z" transform="translate(-2050.366 -275.152)" fill="#0f393a"/>
    <path id="Path_16" data-name="Path 16" d="M-365.688,1363.547a.709.709,0,0,1,.8-.682h.166c.515,0,.632.316.6.682-.216,1.646-.931,2.445-2.411,2.445-2,0-2.494-1.53-2.494-4.44,0-2.428.4-4.474,2.561-4.474,1.5,0,2.145.8,2.328,2.212.05.366-.066.682-.6.682h-.15a.739.739,0,0,1-.831-.682c-.1-.5-.3-.815-.715-.815-.715,0-.881,1.247-.881,3.077,0,2.312.166,3.027.832,3.027.466,0,.682-.316.8-1.031" transform="translate(-2083.906 -185.71)" fill="#0f393a"/>
    <path id="Path_17" data-name="Path 17" d="M-283.764,1365.992c-1.813,0-2.628-1.181-2.628-4.44,0-3.077.715-4.474,2.628-4.474,1.9,0,2.611,1.4,2.611,4.474,0,3.259-.815,4.44-2.611,4.44m0-1.38c.682,0,.9-.781.9-3.06,0-2.245-.216-3.093-.9-3.093-.7,0-.915.848-.915,3.093,0,2.278.216,3.06.915,3.06" transform="translate(-2160.824 -185.71)" fill="#0f393a"/>
    <path id="Path_18" data-name="Path 18" d="M-187.373,1365.177a.6.6,0,0,1-.682.682h-.266a.6.6,0,0,1-.682-.682v-5.272c0-.9-.166-1.214-.532-1.214a1.21,1.21,0,0,0-.881.7v5.787a.6.6,0,0,1-.682.682h-.266a.6.6,0,0,1-.682-.682v-5.3c0-.848-.133-1.181-.516-1.181-.349,0-.7.366-.915.732v5.754a.6.6,0,0,1-.682.682h-.266a.6.6,0,0,1-.682-.682v-7.284a.6.6,0,0,1,.682-.682h.266a.6.6,0,0,1,.682.682v.216a2.169,2.169,0,0,1,1.713-1.031,1.19,1.19,0,0,1,1.214,1.014,2.069,2.069,0,0,1,1.746-1.014c1.164,0,1.43,1.081,1.43,2.478Z" transform="translate(-2245.791 -185.71)" fill="#0f393a"/>
  </g>
</svg>
